
<svg width="53" height="53" viewBox="0 0 53 53" fill="none" xmlns="http://www.w3.org/2000/svg">
<rect width="53" height="53" rx="26.5" fill="#F3F3F3"/>
<g clip-path="url(#clip0_234_1283)">
<path d="M26.2543 6.5L25.9867 7.41127V33.8542L26.2543 34.1219L38.5069 26.8664L26.2543 6.5Z" fill="#343434"/>
<path d="M26.2541 6.5L14.0015 26.8664L26.2541 34.122V21.2873V6.5Z" fill="#8C8C8C"/>
<path d="M26.2543 36.446L26.1035 36.6302V46.0497L26.2543 46.491L38.5143 29.1942L26.2543 36.446Z" fill="#3C3C3B"/>
<path d="M26.2544 46.4909V36.4458L14.0018 29.194L26.2544 46.4909Z" fill="#8C8C8C"/>
<path d="M26.2543 34.1219L38.5067 26.8665L26.2543 21.2874V34.1219Z" fill="#141414"/>
<path d="M14.0018 26.8664L26.2542 34.1219V21.2873L14.0018 26.8664Z" fill="#393939"/>
</g>
<defs>
<clipPath id="clip0_234_1283">
<rect width="24.5161" height="40" fill="white" transform="translate(14 6.5)"/>
</clipPath>
</defs>
</svg>
